<svg id="Layer_2" xmlns="http://www.w3.org/2000/svg" viewBox="0 0 424.28 489.48">
    <g id="id">
        <path class="cls-1"
            d="M212.14,0C94.95,0,.43,94.15,0,211.34c-.26,71.41,34.76,134.64,88.62,173.28,41.55,29.8,81.04,62.38,117.19,98.54l6.33,6.33,12.64-12.64c33.61-33.61,70.45-63.75,109.32-91.11,54.54-38.39,90.18-101.82,90.18-173.59C424.28,94.98,329.3,0,212.14,0Zm0,390.39c-98.45,0-178.27-79.81-178.27-178.27S113.69,33.85,212.14,33.85s178.27,79.81,178.27,178.27-79.81,178.27-178.27,178.27Z" />
    </g>
</svg>